<?xml version="1.0" encoding="UTF-8"?>
<svg id="Ebene_1" data-name="Ebene 1" xmlns="http://www.w3.org/2000/svg" viewBox="0 0 610.88 130.31" fill="currentcolor">

  <path class="cls-1" d="M138.74,3.12h12.4v112.09h47.74v11.98h-60.14V3.12Z"/>
  <path class="cls-1" d="M216.76,3.12h12.4v124.07h-12.4V3.12Z"/>
  <path class="cls-1" d="M244.76,104.08l10.54-6.33c7.42,13.66,16,20.49,25.72,20.49,4.16,0,8.07-.97,11.72-2.91,3.65-1.94,6.44-4.54,8.35-7.8,1.91-3.26,2.87-6.72,2.87-10.37,0-4.16-1.41-8.24-4.22-12.23-3.88-5.51-10.96-12.15-21.25-19.9-10.35-7.81-16.78-13.47-19.31-16.95-4.39-5.85-6.58-12.17-6.58-18.98,0-5.4,1.29-10.32,3.88-14.76,2.59-4.44,6.23-7.94,10.92-10.5,4.69-2.56,9.8-3.84,15.31-3.84,5.85,0,11.31,1.45,16.4,4.34,5.09,2.9,10.47,8.22,16.15,15.98l-10.12,7.68c-4.67-6.18-8.64-10.26-11.94-12.23-3.29-1.97-6.87-2.95-10.75-2.95-5,0-9.1,1.52-12.27,4.55-3.18,3.04-4.77,6.78-4.77,11.22,0,2.7.56,5.31,1.69,7.84,1.12,2.53,3.18,5.29,6.16,8.27,1.63,1.57,6.97,5.71,16.02,12.4,10.74,7.93,18.1,14.98,22.1,21.17,3.99,6.19,5.99,12.4,5.99,18.64,0,9-3.42,16.81-10.25,23.45-6.83,6.64-15.14,9.95-24.92,9.95-7.54,0-14.37-2.01-20.49-6.03-6.13-4.02-11.78-10.75-16.95-20.2Z"/>
  <path class="cls-1" d="M337.95,127.19L355.72,3.12h2.02l50.44,101.8L458.12,3.12h1.99l17.85,124.07h-12.16l-12.26-88.73-43.87,88.73h-3.17l-44.39-89.4-12.19,89.4h-11.98Z"/>
  <path class="cls-1" d="M597.49,127.18c-3.19-6.66-6.37-13.33-9.56-19.99-4.77-9.98-9.64-19.87-14.29-29.95-2.31-5.02-4.47-10.15-6.81-15.12-1.21-2.56-2.41-5.12-3.62-7.68-.62-1.32-1.25-2.65-1.87-3.97-.44-.92-1.75-2.71-1.75-3.71-2.71-5.76-5.42-11.52-8.14-17.28-2.81,5.93-5.61,11.86-8.42,17.78-3.01,6.36-6.03,12.73-9.04,19.09-2.76,5.83-5.87,11.53-8.53,17.41-3.32,7.35-6.66,14.67-10.11,21.96-3.37,7.11-6.73,14.22-10.1,21.32l-.06.14h-13.83L549.99,3.12h3.04l57.86,124.07s-13.39,0-13.39,0Z"/>
  <path class="cls-1" d="M106.12,127.19c-.34-.71-.68-1.43-1.02-2.14l-11.89-24.87c-4.56-9.55-8.85-19.17-13.35-28.74-3.88-8.24-7.77-16.48-11.65-24.73-2.71-5.74-5.41-11.49-8.12-17.23-2.78,5.87-5.56,11.74-8.34,17.61-3.9,8.25-7.81,16.5-11.71,24.74-5.6,11.82-11.17,23.6-16.77,35.42-3.15,6.64-6.29,13.29-9.44,19.93H0L58.62,3.12h3.04l57.86,124.07h-13.39Z"/>
</svg>